<?xml version="1.0" encoding="UTF-8"?>
<svg width="20px" height="20px" viewBox="0 0 20 20" version="1.1" xmlns="http://www.w3.org/2000/svg" xmlns:xlink="http://www.w3.org/1999/xlink">
    <title>请选择站点名称备份</title>
    <g id="服务评价" stroke="none" stroke-width="1" fill="none" fill-rule="evenodd">
        <g id="公交车-服务评价" transform="translate(-34.000000, -284.000000)">
            <g id="3.数据呈现/列表/默认备份-4" transform="translate(16.000000, 238.000000)">
                <g id="编组-9" transform="translate(16.000000, 44.000000)">
                    <rect id="矩形备份-2" x="0" y="0" width="24" height="24"></rect>
                    <path d="M19.6,2 C20.649341,2 21.5,2.85065898 21.5,3.9 L21.5,15.3380952 C21.5,16.3874363 20.649341,17.2380952 19.6,17.2380952 L12.95,17.238 L12.95,21.05 C12.95,21.5746705 12.5246705,22 12,22 C11.4753295,22 11.05,21.5746705 11.05,21.05 L11.049,17.238 L4.4,17.2380952 C3.35065898,17.2380952 2.5,16.3874363 2.5,15.3380952 L2.5,3.9 C2.5,2.85065898 3.35065898,2 4.4,2 L19.6,2 Z M7.25,11.5238095 C6.76280595,11.5238095 6.3612682,11.8905477 6.30639134,12.3630195 L6.3,12.4738095 L6.3,14.3833333 C6.3,14.9080038 6.72532949,15.3333333 7.25,15.3333333 C7.73719405,15.3333333 8.1387318,14.9665952 8.19360866,14.4941234 L8.2,14.3833333 L8.2,12.4738095 C8.2,11.949139 7.77467051,11.5238095 7.25,11.5238095 Z M12,11.5238095 C11.512806,11.5238095 11.1112682,11.8905477 11.0563913,12.3630195 L11.05,12.4738095 L11.05,14.3833333 C11.05,14.9080038 11.4753295,15.3333333 12,15.3333333 C12.487194,15.3333333 12.8887318,14.9665952 12.9436087,14.4941234 L12.95,14.3833333 L12.95,12.4738095 C12.95,11.949139 12.5246705,11.5238095 12,11.5238095 Z M16.75,11.5238095 C16.262806,11.5238095 15.8612682,11.8905477 15.8063913,12.3630195 L15.8,12.4738095 L15.8,14.3833333 C15.8,14.9080038 16.2253295,15.3333333 16.75,15.3333333 C17.237194,15.3333333 17.6387318,14.9665952 17.6936087,14.4941234 L17.7,14.3833333 L17.7,12.4738095 C17.7,11.949139 17.2746705,11.5238095 16.75,11.5238095 Z M18.65,3.9047619 L5.35,3.9047619 C4.86280595,3.9047619 4.4612682,4.27150009 4.40639134,4.74397184 L4.4,4.8547619 L4.4,8.66904762 C4.4,9.15624167 4.76673818,9.55777942 5.23920993,9.61265627 L5.35,9.61904762 L18.65,9.61904762 C19.137194,9.61904762 19.5387318,9.25230944 19.5936087,8.77983769 L19.6,8.66904762 L19.6,4.8547619 C19.6,4.33009139 19.1746705,3.9047619 18.65,3.9047619 Z M10.1,5.80952381 C10.6246705,5.80952381 11.05,6.2348533 11.05,6.75952381 L11.05,6.76428571 C11.05,7.28895623 10.6246705,7.71428571 10.1,7.71428571 L7.25,7.71428571 C6.72532949,7.71428571 6.3,7.28895623 6.3,6.76428571 L6.3,6.75952381 C6.3,6.2348533 6.72532949,5.80952381 7.25,5.80952381 L10.1,5.80952381 Z" id="形状结合" fill="#3C83F9" fill-rule="nonzero"></path>
                </g>
            </g>
        </g>
    </g>
</svg>